<?xml version="1.0" encoding="utf-8"?>
<!-- Generator: Adobe Illustrator 28.3.0, SVG Export Plug-In . SVG Version: 6.00 Build 0)  -->
<svg version="1.1" id="Layer_1" xmlns="http://www.w3.org/2000/svg" xmlns:xlink="http://www.w3.org/1999/xlink" x="0px" y="0px"
	 viewBox="0 0 1000 1000" style="enable-background:new 0 0 1000 1000;" xml:space="preserve">
<style type="text/css">
	.st0{clip-path:url(#SVGID_00000155110033955743144660000001984282010605627562_);}
	.st1{fill:url(#SVGID_00000100356258086594755370000016188786967154917272_);}
	.st2{fill:url(#SVGID_00000072978305258988717320000002109174450941944498_);}
</style>
<g>
	<defs>
		<path id="SVGID_1_" d="M350,0h300c193.3,0,350,156.7,350,350v300c0,193.3-156.7,350-350,350H350C156.7,1000,0,843.3,0,650V350
			C0,156.7,156.7,0,350,0z"/>
	</defs>
	<clipPath id="SVGID_00000000926595858113197630000016500493224573171841_">
		<use xlink:href="#SVGID_1_"  style="overflow:visible;"/>
	</clipPath>
	<g style="clip-path:url(#SVGID_00000000926595858113197630000016500493224573171841_);">
		<rect x="-0.8" y="0.5" width="1000" height="1000"/>
		<g>
			<g>
				
					<linearGradient id="SVGID_00000132049627871979254850000007502382442801614984_" gradientUnits="userSpaceOnUse" x1="107.7167" y1="385.7065" x2="890.7186" y2="385.7065">
					<stop  offset="0" style="stop-color:#EC245A"/>
					<stop  offset="1" style="stop-color:#A91F8C"/>
				</linearGradient>
				<path style="fill:url(#SVGID_00000132049627871979254850000007502382442801614984_);" d="M890.7,376.2v121.4L604.5,278
					c0,0-63.2-51.7-145.9-31c0,0-39.4,8.1-92.9,49.6l-103,77.6l307,249.8c0,0-68,58.1-155.9-9.5S107.7,376,107.7,376l215.6-186.3
					c0,0,91-86.6,215.9-60.7c0,0,47.4,7.9,83.3,28c0,0,41.7,22.3,79,53.9S890.7,376.2,890.7,376.2z"/>
				
					<linearGradient id="SVGID_00000008112085950089614610000006269536838400605868_" gradientUnits="userSpaceOnUse" x1="-93.6122" y1="542.3068" x2="689.3896" y2="542.3068" gradientTransform="matrix(-1 0 0 -1 797.1063 1157.6816)">
					<stop  offset="0" style="stop-color:#A91F8C"/>
					<stop  offset="1" style="stop-color:#EC245A"/>
				</linearGradient>
				<path style="fill:url(#SVGID_00000008112085950089614610000006269536838400605868_);" d="M107.7,624.9V503.5l286.2,219.6
					c0,0,63.2,51.7,145.9,31c0,0,39.4-8.1,92.9-49.6l103-77.6l-307-249.8c0,0,68-58.1,155.9,9.5s306.1,238.5,306.1,238.5
					L675.1,811.3c0,0-91,86.6-215.9,60.7c0,0-47.4-7.9-83.3-28c0,0-41.7-22.3-79-53.9C259.5,758.6,107.7,624.9,107.7,624.9z"/>
			</g>
		</g>
	</g>
</g>
</svg>
